<?xml version="1.0" standalone="no"?>
<!DOCTYPE svg PUBLIC "-//W3C//DTD SVG 20010904//EN"
 "http://www.w3.org/TR/2001/REC-SVG-20010904/DTD/svg10.dtd">
<svg version="1.0" xmlns="http://www.w3.org/2000/svg"
 width="520.000000pt" height="520.000000pt" viewBox="0 0 520.000000 520.000000"
 preserveAspectRatio="xMidYMid meet">
<metadata>
Created by potrace 1.14, written by Peter Selinger 2001-2017
</metadata>
<g transform="translate(0.000000,520.000000) scale(0.100000,-0.100000)"
fill="#000000" stroke="none">
<path d="M244 4638 c-4 -6 14 -97 87 -438 52 -241 81 -377 85 -400 3 -14 16
-75 29 -137 14 -61 26 -122 29 -135 2 -13 9 -43 15 -68 5 -25 12 -56 14 -70
11 -58 44 -213 108 -505 19 -89 25 -115 34 -165 2 -14 18 -86 34 -161 17 -74
32 -149 35 -165 3 -16 10 -44 15 -62 5 -18 10 -36 10 -40 1 -6 6 -36 16 -92 2
-8 6 -26 9 -40 5 -23 73 -343 81 -381 2 -9 13 -59 24 -110 11 -52 23 -110 26
-129 3 -19 10 -51 15 -70 5 -19 18 -80 30 -135 67 -319 82 -392 86 -415 3 -14
7 -33 10 -42 3 -9 7 -27 9 -40 2 -13 10 -51 16 -86 l13 -62 606 0 606 0 38
162 c21 90 39 172 42 183 2 11 8 38 14 60 5 22 23 101 40 175 17 74 37 162 45
195 22 94 44 191 49 216 2 13 9 44 16 69 7 25 14 54 16 65 2 11 13 62 25 114
24 105 27 104 53 -16 8 -37 44 -192 79 -343 36 -151 93 -394 127 -540 34 -146
66 -282 71 -302 l10 -38 603 0 603 0 22 103 c47 219 61 283 65 307 2 14 9 43
14 65 6 22 14 60 17 85 4 24 8 47 10 51 2 3 13 50 25 105 11 55 22 109 25 120
2 10 22 107 45 214 23 107 48 227 57 265 8 39 17 79 19 90 2 11 33 160 70 330
36 171 81 384 100 475 19 91 46 215 59 275 13 61 26 121 28 135 3 14 15 70 27
125 12 55 24 111 26 125 3 14 14 66 25 115 19 83 64 299 75 353 2 12 6 32 8
45 3 12 14 65 26 117 11 52 32 151 46 220 14 69 31 150 38 180 l13 55 -626 -1
c-344 -1 -629 -2 -632 -3 -4 0 -10 -22 -13 -48 -9 -59 -11 -67 -42 -233 -14
-74 -27 -144 -29 -155 -1 -11 -5 -33 -8 -50 -4 -16 -9 -43 -12 -60 -6 -35 -23
-128 -30 -165 -4 -21 -84 -458 -100 -545 -3 -16 -10 -59 -17 -95 -10 -60 -12
-63 -20 -35 -5 17 -13 50 -18 75 -12 58 -50 231 -55 250 -2 8 -11 49 -20 90
-36 160 -55 248 -75 335 -12 50 -30 131 -40 180 -11 50 -29 131 -41 180 -11
50 -23 102 -25 117 -3 15 -13 58 -22 95 l-17 68 -523 0 c-456 0 -523 -2 -527
-15 -4 -13 -44 -197 -59 -270 -3 -14 -7 -34 -10 -45 -7 -32 -31 -142 -86 -395
-28 -129 -55 -251 -60 -270 -5 -19 -11 -46 -14 -60 -11 -57 -35 -170 -51 -245
-18 -80 -35 -118 -35 -78 0 19 -40 242 -86 483 -9 47 -17 92 -18 100 -1 8 -5
31 -9 50 -4 19 -9 49 -12 65 -3 17 -10 54 -15 83 -6 28 -14 76 -19 105 -5 28
-12 63 -15 77 -3 14 -8 36 -10 50 -8 50 -47 266 -57 315 l-9 50 -626 0 c-344
0 -628 -3 -630 -7z"/>
</g>
</svg>
